/* XPM */
static char *_d356dcef318425d9fa9c077b2ec4e9bkdHGdAYNwdw8eOu5[] = {
/* columns rows colors chars-per-pixel */
"64 64 252 2 ",
"   c #0A0301",
".  c #160805",
"X  c #191307",
"o  c #191816",
"O  c #0F120C",
"+  c #270B02",
"@  c #291608",
"#  c #351B08",
"$  c #2A1C15",
"%  c #341B15",
"&  c #152904",
"*  c #1E2319",
"=  c #193109",
"-  c #27290D",
";  c #39230B",
":  c #24330E",
">  c #2C2518",
",  c #382618",
"<  c #2A3A15",
"1  c #363818",
"2  c #33340E",
"3  c #1E1D21",
"4  c #272828",
"5  c #3B2A27",
"6  c #393427",
"7  c #383938",
"8  c #2D322F",
"9  c #442A18",
"0  c #49341C",
"q  c #4F2E12",
"w  c #462E24",
"e  c #493528",
"r  c #563928",
"t  c #443B36",
"y  c #573B34",
"u  c #522C2B",
"i  c #66362E",
"p  c #36441C",
"a  c #2C451B",
"s  c #384A23",
"d  c #3D4E29",
"f  c #474A25",
"g  c #58432C",
"h  c #48552B",
"j  c #53542B",
"k  c #594637",
"l  c #585B34",
"z  c #495035",
"x  c #674938",
"c  c #68543B",
"v  c #75573C",
"b  c #6F4731",
"n  c #586339",
"m  c #4B6236",
"M  c #54582D",
"N  c #3C3C41",
"B  c #4C3D41",
"V  c #3F4543",
"C  c #444545",
"Z  c #564B46",
"A  c #595347",
"S  c #575857",
"D  c #4D4F51",
"F  c #684A45",
"G  c #754C45",
"H  c #6C5A4B",
"J  c #685747",
"K  c #7A5D44",
"L  c #775949",
"P  c #6A5B53",
"I  c #795855",
"U  c #7B4E51",
"Y  c #5D625A",
"T  c #5F6740",
"R  c #696948",
"E  c #7A6449",
"W  c #6B6459",
"Q  c #746454",
"!  c #7C6A55",
"~  c #7B6B5B",
"^  c #776759",
"/  c #7A7458",
"(  c #666865",
")  c #756B64",
"_  c #7A7366",
"`  c #6C6C74",
"'  c #757777",
"]  c #6E7171",
"[  c #5D6162",
"{  c #8F6339",
"}  c #85562B",
"|  c #845A53",
" . c #845B49",
".. c #88674A",
"X. c #966C4C",
"o. c #9A724D",
"O. c #836C54",
"+. c #8C6D54",
"@. c #876859",
"#. c #936B55",
"$. c #8B745C",
"%. c #877559",
"&. c #947455",
"*. c #93755C",
"=. c #947A5C",
"-. c #9C7C5D",
";. c #9C7755",
":. c #A37B58",
">. c #A9784F",
",. c #866D65",
"<. c #877667",
"1. c #947B63",
"2. c #9C7D63",
"3. c #967868",
"4. c #887D73",
"5. c #967D74",
"6. c #956D69",
"7. c #A17E63",
"8. c #A67968",
"9. c #AA7B76",
"0. c #7A837B",
"q. c #8D815F",
"w. c #A9835B",
"e. c #B6895B",
"r. c #B6915D",
"t. c #8D8262",
"y. c #9D8165",
"u. c #9D836B",
"i. c #97856B",
"p. c #888379",
"a. c #988877",
"s. c #9C9178",
"d. c #A38365",
"f. c #A3856B",
"g. c #A58A6C",
"h. c #AC8B6C",
"j. c #AA8766",
"k. c #B68B66",
"l. c #AB916C",
"z. c #BA9369",
"x. c #AB8C73",
"c. c #A58A75",
"v. c #B78C75",
"b. c #AC9273",
"n. c #AC937B",
"m. c #A79477",
"M. c #B39373",
"N. c #B89879",
"B. c #BEA17F",
"V. c #C48C5D",
"C. c #DA9C5B",
"Z. c #C79669",
"A. c #D49A6A",
"S. c #C69B78",
"D. c #CB9671",
"F. c #DAA46A",
"G. c #CCA37D",
"H. c #C7A479",
"J. c #DCA674",
"K. c #D8A877",
"L. c #DAB579",
"P. c #CEA76D",
"I. c #E4A365",
"U. c #E4A46B",
"Y. c #EAA96A",
"T. c #E4AB73",
"R. c #EBAD74",
"E. c #E5AB79",
"W. c #EBB375",
"Q. c #E4B37C",
"!. c #EAB37C",
"~. c #E5B979",
"^. c #F3B67A",
"/. c #F3AC6E",
"(. c #DFA25E",
"). c #7A7B84",
"_. c #837D84",
"`. c #7C8280",
"'. c #888889",
"]. c #958C88",
"[. c #97948B",
"{. c #999898",
"}. c #8F8E8F",
"|. c #A89787",
" X c #BB9B83",
".X c #B79986",
"XX c #A59B94",
"oX c #B1918C",
"OX c #99A399",
"+X c #BBA38A",
"@X c #B9A897",
"#X c #ADA999",
"$X c #9D9BA5",
"%X c #9CA3A4",
"&X c #A7A9A8",
"*X c #B8ACA9",
"=X c #B8B3A7",
"-X c #B6ADB5",
";X c #B6B6B7",
":X c #ABB2AF",
">X c #C79B86",
",X c #C3A385",
"<X c #CBAB8C",
"1X c #C9A687",
"2X c #D3AA84",
"3X c #D6AA89",
"4X c #D5B38B",
"5X c #DBB58B",
"6X c #DBB687",
"7X c #C6AB96",
"8X c #D5AB95",
"9X c #C6B299",
"0X c #DDBB93",
"qX c #D7B797",
"wX c #CBB18E",
"eX c #E4B483",
"rX c #EAB584",
"tX c #E4BB84",
"yX c #EBBA83",
"uX c #E3B58B",
"iX c #E4BB8B",
"pX c #ECBC8B",
"aX c #EBB58C",
"sX c #F4BB85",
"dX c #E2BD94",
"fX c #E6BC97",
"gX c #E9B48C",
"hX c #C6ADA4",
"jX c #C8B7A6",
"kX c #D9BCA3",
"lX c #CDB4B0",
"zX c #E3BBA4",
"xX c #DDC183",
"cX c #DBC398",
"vX c #CEC19E",
"bX c #E7C389",
"nX c #F8C489",
"mX c #E5C195",
"MX c #EAC399",
"NX c #F5C799",
"BX c #FFD293",
"VX c #D3C6B0",
"CX c #E8C8A7",
"ZX c #F4CBA5",
"AX c #F6D1B3",
"SX c #BABAC2",
"DX c #C1BEC7",
"FX c #BAC2C2",
"GX c #C6CACF",
"HX c #F4EAD4",
"JX c #EFDED2",
"KX c #BAC5BF",
/* pixels */
"jXO.y. X@X,.j. X,.J $.2.v 2.9 O.fXeXrXL.K.L.K.J.L.L.L.xXxXbXbX~.L.H.P.r.w.>.o.>.:.X.X.X.#.+.+.@.O.O.O.+.+.3.c.3.3.1.*.*.+.+.$.%.",
"jXO.d. X@XO.g. X_ H $.-.K 2.9 O.MXeXeX6XL.J.Q.K.K.L.L.xXbXbXxX~.L.P.P.z.w.w.;.;.:.o.X.X.#.+.+...%.! ,.*.9.c.c.f.1.1.6.*.*.*.&.%.",
"jXO.g.+X7X@.h. X~ J *.2.K u.9 %.MXuXiXuXuXE.Q.E.Q.Q.xXxXxXbX~.~.L.P.P.r.r.w.>.:.q.o.&...&.E O.J L c +.3.c.v.n.c.1.1.*.*.*.*.$.$.",
"9X! g.>X@X@.g.,X^ J 1.2. .y., $.CXiXuXiXuXQ.Q.Q.Q.tXxXxXbXxX~.L.L.P.P.P.r.e.w.w.w.o.;.&.+.g c @.! r y 3.x.c.x.u.1.*.1.*.1.=.=.$.",
"@XO.g.+X+X$.h. X^ J 1.-.{ f.; $.MXbXbX6XeX6XQ.Q.eXeXtXbXxXiX~.~.L.F.F.Z.V.r.e.e.:.;.2.6.L y u H O.k 9 I x.c.u.u.2.*.*.-.*.*.1.*.",
"@X%.x.+X+X,.h.,X^ H 2.2.E u.; q.NXtXbXtXiXtXeXQ.~.6XxXxXiXbXL.~.L.F.P.Z.Z.r.e.e.w.7.2.+.e e , y Q y y i 5.f.y.u.=.2.-.*.2.*.1.1.",
"@XO.x.,X+X%.h.,X! H 2.y...g.; q.BXbXpXpXpXrXrXW.~.~.L.~.xXxXxXxXL.P.P.H.z.z.k.k.k.:.7.| 9 # u Q <.k u w 2.3.y.y.2.-.-.2.2.2.2.2.",
"+X%.b.1X.X,.g.+X^ Q i.w...h.; -.NX^.sXaXaXuXQ.~.~.~.~.xXxXL.L.L.L.P.H.H.z.z.r.k.k.w.d.c 9 9 F ,.5.5.y @ @.u.u.1.y.2.-.2.2.2.y.3.",
"|.$.c.wX.X%.x. X^ Q u.y...g.; =.BXsXpXpXfXeXtXL.~.L.tXrXL.yXL.L.L.P.P.P.Z.z.r.r.r.j.d.c # y H ,.6.^ I @ L u.1.y.-.y.d.2.y.y.2.2.",
"|.%.b.<X|.$.M.,X^ R u.y.X.g.; =.ZXbXpXpXyX6XL.6XL.tXtXpXbXeXQ.eXL.F.P.H.z.z.r.Z.e.w.y.g , P y P F y 6.@ F i.y.2.-.-.:.2.-.2.u.2.",
"|.=.b.7X|.1.M.,X! I d.w.X.g.; q.MXiXiXtXtXL.L.L.L.6XD.D.G.D.D.D.Z.z.k.j.j.w.w.w.k.w.d.0 % U % U I F 5.# g <.u.-.7.:.2.2.2.2.7.u.",
"m.<.b.wX|.<.M.,XQ Q u.d.&.h.; y.ZXiXyXyX~.~.L.L.Q.L.gXeXD.>X7X>X>XN..X.X X>XS.D.k.j.&., % F y 6.oX5.|.$ 0 $.u.d.7.7.d.2.d.7.f.f.",
"m.$.n.wX|.1.M.+XQ ^ f.7.&.g.; q.ZXbXpXrXrX!.Q.W.W.W.BXNX4X7X*X-X=X*X&X-X*X7X7XN.k.v.K # # U | 8.oX9.6.+ , O.u.2.7.7.7.y.y.u.u.d.",
"s.<.n.wX|.3.M. XQ ^ f.y.&.f.; y.NXyXyX!.!.!.eXL.J.~.BXnXbX0XjXhXlX-XSX-X-X&X7XN.h.h.L @ + G | G 6.6.H @ , L c.y.7.7.2.y.y.d.u.d.",
"i.<.n.wX|.t.M. XQ ~ c.:.&.g.; u.ZXpXyXQ.Q.eX6X4XL.Y.~.nXnX~.6X0XhX-X-X-X*X@X9XN.h.f.L # . y G y U @.u , , H f.7.f.8.y.d.g.u.g.d.",
"3.$.n.7Xn.3.N. XQ ~ g.-.&.d.; d.NXpX~.W.Q.6X6XwXK g v F.nX^.!.~.qXjXhX*XhX*XhXN.h.d.J %   w F i U | @ y 9 E 5.g.8.j.w.g.g.l.g.g.",
"3.,.b.<Xc.3..X.XQ ^ g.;.&.y.# d.ZXrX!.!.~.L.cXy.9 # # { nXW.^.W.eX5XhX*X*X+X7X.Xh.d.F % . . y G 6.u . 5 9 oXkX9.j.8.j.j.g.l.l.g.",
",.3.b.wXc.i.N..XQ / g.w.q.u.; g.ZXyXyXW.W.6XG.c + t c r T.^.^./.W.eX7XXX@X@XhX>Xj.=.x 5 $ . % G x + + @ 9 >XzX>Xj.j.j.M.l.N.N.M.",
"P 3.m.7Xa.i..X.XQ ! w.w.;.u.; u.MXrX^.W.Q.iXl.0 @ y L # Z.nX/.nX!.eX7XoXoX X8X Xj.w.x $ $ . # x u + + + u 8.>X8Xk.k.z.N.B.H.H.B.",
"C ~ s.9Xi.3.v.n.E / l.o.;.u.; y.MX!.yXQ.eXL.&.1 @ , r # >.^.W.^.^.rX<X|..X.X7XN.l.;.y % X . % G x % + 9 U >X>X>X>XS.S.H.wXG.2X4X",
"* 6 R |.a.a.N.n.E ! l.;.-.y.# y.MX!.!.Q.6XN.c ; X e P 9 { sXnX^.sXpX1Xn.n..X,Xv.S.N.G , @ $ e x x y y b 6.>X>X>X2XS.H.2XL.3XeXuX",
"* X - T ^ a..Xc.H ! M.;.=.t.; y.NX!.!.eX2Xw.r , @ e P % { !.rXyXsXpX>Xx.m.N.,X>X1XfX7.g e F x x x x x | 6.>Xv.>X1X2X4X5X5X0XuXgX",
"* & X @ z ~ |.m.H ~ x.;.=.2.- w.bXW.Q.uXS.E e - @ 5 u + X.rXrXnXsXNXS.g.x.M.>XD.>X8Xv.#.L @.U U G G  .| | 6.8.>X>X3XqX0XxX0XdXfX",
"* 4 1   . 6 P <.P <.n.=.=.1.; y.bXW.rXeXj.x w $ X 5 5 + X.eXsXpXsXNX+Xi.c.n..X>X3X8XfX8.U |  .|  .U G | 6.| #.>X>X8X0XdXcXmXMXpX",
"- 1 , $ X   $ A A z Q O.g.$.; y.bXT.Q.6X..9 % 3 X % $ + 8.rXrXsXNXZX+Xt.i.a.|. X>XzXzXv.i | | | L U ~ 3.L w | >X>X8XzXfXfXfXMXMX",
"- z e - > X X o t , e ! t.%.; w.NXW.!.G.v , 5 $ X . + i D.eXsXpXNXAX+Xt.s.s.|..X.X8XAX>X9 G | U G F H k , % g 3.v.3XfXaXaXfXmXdX",
"z l j 5 6 > X o D f k L i.<.@ g.tXW.W.5X5.F 5 $ X X , v D.eXaXsXsXZX.XQ ) ^ 4.|.c.8XAX>X+ % 5 % @ % X X , > u  .8.D.8XfXMXmXMXmX",
"f f c g > - * 6 ) e > g E $.# j.pXQ.E.uX7X^ 7 $ X , v :.A.aXsXsXNXAX7X4.p._.[.&XoXhXzX>X+ + U I k % P ~ 5 e y b  .k.gXzXMXmXmXmX",
"f l ! c 2 - 6 f _ g r / g g ; h.pXQ.Q.5X|.^ t $ w k X.3XK.rX!.sXaXZXhXXX&X$X:X&X5.kXAX8X9 . u 6._.hXlX_.u y @.q #.D.3XdXdXcXcXMX",
"n l / T 0 2 6 j s.k k O.0 0 , n.dXE.W.5X|.^ t $ Z c h.bXE.R.R.sXsXfXhXXX{.{.-X*XoXzXAXAX>X6.u y G U I i ,.oXoX .:.8.S.dXMXcXcXcX",
"l h R E c j 2 c m.c c y.g c . c.fXrXT.L.c.) 5 > 6 k 6XyXE.E.R.rXsXfXhX].$X$XSX-X9.D.D.9.6.9.9.U % % 5 % ) 7XzXzXgX8XG.gXMXmXMXMX",
"p m n E R j 2 j m.v v +XQ c + b.aXeXQ.3X3.) Z $ > L mX~.T.U.R.R.W.NXhX].$X$XSX-X9.3X9.i G 6.oXU . o   X y U 9.>X8XD.k.2XfXpXNXMX",
": d f n n j - c n.v .. X..v @ b.aXeX5X1X5._ Z $ 9 E MXW.U.T.U.R.^.iX7X[.{.$X;X*Xu.c.n.r x G 6.I o o o O > 1 r ..+.#. .>XMXdXMXdX",
"a p h R j f 2 R n.E ..H.+...@ l.dXeXS.f.,.<.k 5 H ..sX^.E.T.U.R.U.NX*.$ 6 ] -X-Xt.=.G w r y B 5 . o O   o J c q r b  .<XfXMXMXmX",
"& s p z l p - R m.E X.N.&.E # M.uXeX3Xn.Q ^ ].6.@.d.aXeXE.A.E.R.!.pX#.    ( DX*Xi.3.k e k t . . O o o 3 N ' 9XN.#.v  .qXCX0XiXMX",
"& = 1 s l p < R s.K &.N.-.E # N.eXE.2Xf._ P ^ a.I ..fXpXK.E.R.R.R.pX#..   ` DX-Xi.i.s.) t 6 o o o 3 3 N d k #XVXzXqX8XfXqXMXMXiX",
"& = a p f p 1 W s.v &.N.1.E # N.Q.E.2X..F P k 6.O.K k.pX3XaXsXU.^.pX-.    ` SX-Xa.t.a.S t 7 7 4 3 3 3 4 7 ( <..XkX0XqXcX0X0XmXCX",
"= = : < < h 1 / a.K =.N.=.E # S.rXT.uXc.k k 6 J Q b b o.3XJ.V./.R.rXM.X   ( GX;Xi.s.~ z 7 N 7 4 4 4 4 N D Z F ].qXqX0XqXMX0XiXdX",
"a < : f 2 f f W i.E -.N.*.K ; N.tXJ.K.AXn.l % 5 g O.X.} } { V.!.U.rX&.X 7 ' SX-Xi.i.) S 8 7 N 4 8 N N N B B P <.qXqX0X5XkX0XmXMX",
"d m f h l f p / i.E w.N.=.E # S.Q.Q.K.AXHXhXi.,.c.1XZXW.A.A.R.T.R.pX$.$ z ] SXlXa.i.I B 4 7 d V N 8 8 N N N D I 9XqX5X0X0X0XmXmX",
"h n T M n j p q.i.K ;.N.=.v ; G.Q.K.J.ZXAXVX9X@X=X9XbX!.T.T.U.T.R.tXy.    Y KX=Xi.g.W 7 4 3 4 V 7 8 7 C C B D P +XcX4XxX0X0X0XCX",
"m n T M j M s { y.K w.z.-.v # S.6XQ.J.ZXAXVX@X@X=X+XbXW.U.F.F.T.Y.nXq.. O Y VX=Xg.m._ A V a 4 3 8 4 7 N N C D W @XvX4X5X0X0X0X0X",
"d M R n j M f q.t.K w.N.&.v ; H.K.K.E.aXZXVX@X*XVX+XtXW.Y.I.F.Y./.!.j.  & ( VXvXl.m._ ( ( S V 8 4 4 8 N N C C W @XcX4X0XdX0X0XCX",
"p h R T f M p / q.K o.M.&.v 9 H.6XT.J.uXZXCX@X@XjXN.tX^.Y.I.I.Y./.sXj.  0.HXHXVXj.l.p.p.0.( D 8 * 8 7 7 7 7 C W #XvXqX5X5XdX0X0X",
"f p M l f j f o.%.E w.z.o.b 9 ,XL.J.K.E.ZXVX@X=X#Xm.tXW.I.I.I.Y.Y.rX X) =XJXHXVXl.l.p.'.0.Y Y D 8 8 N 7 N C Y ' XXjXqX0X0XdXqX0X",
"h f M j j f j 0.q.K ;.M.&.b 9 ,XK.J.J.L.AXCX+X@X|.u.bXW.U.I.Y.Y./.rXhX=X:X#XvXvXl.b.s.[.0.Y S [ C * N S S P [ ' #XjX8X5X5X5XqXfX",
"p n T n 2 f f T %.K y.M.&.c 9 H.K.J.J.K.CXCX9X@Xa.u.aXrXU.U.Y.Y.U.eX@XXXOX=X#XwXM.m.|.'.0.( Y S ` 8 4 S D S Y p.#XlX9X8X5X5X0XkX",
"a p T T M a p E / K ;.z.+.x 9 1XK.T.J.K.CXCXvX+X3.-.gXR.R.U.I.Y.R.Q.jX{.OX=XvXvXl.l.|.}.[.}.0.' ).D O D [ Y S ( 4.=XkX4X4X0X0XqX",
"a p h M h a p / ..K -.l.%.g q G.J.F.J.K.zXAXkX+Xv q.^./.I.U.I.Y.Y.E.,XQ 0.OX#XvXb.h.|.XXSX%X%X`.`.).3 3 D ] ( ' ].9XqXwX4X5XqXqX",
"a p h m m s p q.%.K y.l.+.x q G.J.J.J.D.ZXAXqXN.v w.^./.I.I.Y.Y./.W.>XP W ' p.|.b.x.c.[.:X:X}.`.%X`.D V 7 ).).'.].@XqXwX4X4XqXqX",
"p p n h d a p q.%.K y.l.+.b q S.A.K.J.S.zXAXqXb.v o.^./.I.I.I.Y.I.Q.8X[.{.{.[.|.M.l.c.|.&X%X`.`.:X%XD S D ] &X{.[.9X9X4X3X4X8X8X",
"f a a p m p 2 t.O.K w.w.O.g q G.K.J.D.D.S.3Xu.O.v o.^./.I.I.I.Y.W.Q.1Xp.'.`.[.oXM.k.c.a.%X{.`.OX:X%X` V [ ).'.{.|.9XwX2X3X2X4XqX",
"a s : = d h 2 / O.K -.g.+.g q G.A.A.A.J.D.1X8.2...o.^./.I.I.U.U.Y.3X<Xa.}._.{.oXz.k.M.5.[.&X{.OX%XGX`.V ).`.}.}.XX9X<X2X3X2X4X<X",
"f a : < a a 2 %.O.E :.j.+.r q G.A.A.A.A.Z.G.8.2...o.^./.I.I.U.U.Y.E.2X5._._._.5.l.z.M.g.p.&X&X:XGXHX:XV `.`.}.}.XX9X<X2X4X2X<X<X",
"h & & : s < 1 q.O.E -.j...r q G.A.A.C.V.Z.D.8.-.O.X.^./.I.(.F.U./.E.S.$.) ' ' p.M.e.j.n.4.{.FXFXGXGXFXV $X$X`.}.|.9X7X1X2X2X<X3X",
"a a & O a a p t.O.K -.j.X.r q G.A.A.A.A.D.D.8.:.2.:.sX/.(.(.F.I.R.R.S.#.P [ P <.M.w.h.n.p.'.:XFXGXGXSXD ).`.}.}.|.@X<XH.2X1X<X<X",
"s z < & a s p q.E E w.y.O.q q >XD.D.V.A.V.D.8.#.:.>.^.Y.(.C.C.I.U.rX2X+.~ ) ) 5.M.k.j.v.5.p.*XlXGXGXFXD ` '.}.p.|.@X<XH.H.4XG.1X",
"d z < & : p f %.E K -.-.O.0 r S.Z.Z.Z.V.V.D.9.*.i q nX/.C.C.A.F.J.D.z.%.4.'.].[.h.w.k.h.a.*X&X;XSXGXFX[ ` '.'.p.|.7X1XG.G.G.H.1X",
": a : = & a f q.E K 2.-.O.0 r S.Z.V.V.V.V.V.v.#.# q rXA.F.Z.D.S.S.h.2.<.a.].].oXv.w.k.j.c.s.XX&X:XFXFX( ] '.' p.[.+XH.S.S.H.H.,X",
"< < < = & : h q.L K 7.-.O.q r N.Z.V.V.V.>.Z.>X,.O. X8XeXz.k.:.+.@.! ~ <.4._.].oXh.j.:.j.u.~ XX&X&X;XFX' ] 4.' 0.s.@X+XS.H.H.,X1X",
"< < s * a s n q.L K 2.&.O.9 r N.k.V.e.>.w.k.&.c #XJX<Xh.1.^ %.<.<.<.<.p.4.].[.XXx.x.f.c.c.a.&X$X&X:XKX0.` ).] '.[.@X7X1X,X X7X+X",
"s : < a s d j q.E K 7.&.O.9 r N.k.k.k.e.k.d.c j |.VXkX$.~ <.<.4.p.4.<.4._ p.4.4.u.i.u.u.s.p.$X&X&XKX:X`.).).' `.{.].a.a.u.a.5.4.",
"h s s z h p j %.H K 2.+.@.9 r n.c.x.f.8.-.y.m.|.'.VXHX@Xk W Q W ~ _ _ _ _ ~ W W W ~ Q ^ _ ( &X$X%XSX:X$X).).).'.{.] P P P ( [ [ ",
"d h a s a < n q.J K *.+.~ , r n.c.c. .L c %.JX=XY '.@X%.A A H W _ 4.<.<.^ R S P J R A R m ' SX$X&XSX:X%X).).` ).$X` ( ) ) ( ( )."
};
