/* XPM */
static char *_88920d104aa4994c9850c3d849323f33uSiHnSupn1cuSNa[] = {
/* columns rows colors chars-per-pixel */
"64 64 252 2 ",
"   c #1C1A0E",
".  c #151A0A",
"X  c #141D15",
"o  c #1D1D13",
"O  c #151D1A",
"+  c #1B1D1B",
"@  c #161612",
"#  c #0E1C0F",
"$  c #370D03",
"%  c #2B150B",
"&  c #231B0D",
"*  c #28180D",
"=  c #35150B",
"-  c #37180C",
";  c #221D14",
":  c #2B1C14",
">  c #231E1A",
",  c #2B1E1D",
"<  c #291414",
"1  c #341B14",
"2  c #3B1D14",
"3  c #361C19",
"4  c #15240D",
"5  c #0C2915",
"6  c #152316",
"7  c #1C2215",
"8  c #142B15",
"9  c #16221C",
"0  c #1C231B",
"q  c #1D291E",
"w  c #172B19",
"e  c #07250A",
"r  c #232115",
"t  c #2B2215",
"y  c #24231C",
"u  c #2B231D",
"i  c #27291C",
"p  c #33231C",
"a  c #372419",
"s  c #22230E",
"d  c #141E23",
"f  c #0B1E22",
"g  c #2A1E24",
"h  c #341D23",
"j  c #132424",
"k  c #1C2422",
"l  c #1E2A23",
"z  c #1E2B2B",
"x  c #152A27",
"c  c #1C2B31",
"v  c #162D2B",
"b  c #242422",
"n  c #2C2522",
"m  c #232B23",
"M  c #2C2A24",
"N  c #2D2629",
"B  c #242D2A",
"V  c #2C2C2B",
"C  c #24242A",
"Z  c #322424",
"A  c #332A25",
"S  c #3D2C25",
"D  c #34242A",
"F  c #342C2A",
"G  c #3B2C2C",
"H  c #3B2525",
"J  c #26322B",
"K  c #2B332D",
"L  c #293226",
"P  c #34322C",
"I  c #3A312D",
"U  c #33342B",
"Y  c #2D2D33",
"T  c #262933",
"R  c #342D34",
"E  c #3B2C32",
"W  c #382B3A",
"Q  c #2B3333",
"!  c #2C343A",
"~  c #273536",
"^  c #353334",
"/  c #3D3233",
"(  c #34343B",
")  c #3C353B",
"_  c #3B393C",
"`  c #353938",
"'  c #471609",
"]  c #431D19",
"[  c #561C0E",
"{  c #651F13",
"}  c #43231B",
"|  c #4B241C",
" . c #47251A",
".. c #57271B",
"X. c #65261A",
"o. c #752B1C",
"O. c #472A26",
"+. c #562B27",
"@. c #48332C",
"#. c #5B322B",
"$. c #462C38",
"%. c #433234",
"&. c #45343A",
"*. c #4B343C",
"=. c #4B3A3D",
"-. c #453839",
";. c #583636",
":. c #5B2C33",
">. c #682D24",
",. c #66342A",
"<. c #77342B",
"1. c #653A39",
"2. c #78352E",
"3. c #37423E",
"4. c #53423F",
"5. c #76423C",
"6. c #3E2644",
"7. c #3A3B42",
"8. c #2F3C44",
"9. c #443C44",
"0. c #4C3B43",
"q. c #493747",
"w. c #533543",
"e. c #523D45",
"r. c #553D4B",
"t. c #5A3A48",
"y. c #573A55",
"u. c #4A314B",
"i. c #683B45",
"p. c #663C56",
"a. c #773C50",
"s. c #5D3864",
"d. c #643E66",
"f. c #364248",
"g. c #4A4448",
"h. c #55434C",
"j. c #594349",
"k. c #4F4751",
"l. c #5D4453",
"z. c #584755",
"x. c #5C515A",
"c. c #6C434C",
"v. c #674448",
"b. c #76464A",
"n. c #6C455D",
"m. c #664758",
"M. c #774957",
"N. c #665359",
"B. c #77545A",
"V. c #5C4966",
"C. c #694A65",
"Z. c #774B65",
"A. c #6A5469",
"S. c #78546A",
"D. c #6C4A74",
"F. c #754C76",
"G. c #785678",
"H. c #6D5575",
"J. c #78677D",
"K. c #883939",
"L. c #8D3A2E",
"P. c #984434",
"I. c #8E443B",
"U. c #A64B3A",
"Y. c #853C45",
"T. c #884747",
"R. c #844A56",
"E. c #88525B",
"W. c #96595B",
"Q. c #9A4A52",
"!. c #A94F50",
"~. c #885667",
"^. c #93596A",
"/. c #885877",
"(. c #935C76",
"). c #854E71",
"_. c #A85A66",
"`. c #B75866",
"'. c #A55671",
"]. c #846379",
"[. c #98647C",
"{. c #916369",
"}. c #AB6979",
"|. c #B36874",
" X c #7B5C8C",
".X c #7A5786",
"XX c #7B5C96",
"oX c #744C80",
"OX c #7C6486",
"+X c #7D6198",
"@X c #7E63A4",
"#X c #796BC0",
"$X c #875A87",
"%X c #955B85",
"&X c #885D97",
"*X c #925D95",
"=X c #8B6389",
"-X c #95668B",
";X c #8C6494",
":X c #856799",
">X c #966798",
",X c #9A739A",
"<X c #897596",
"1X c #A96788",
"2X c #B76986",
"3X c #B5768C",
"4X c #A97099",
"5X c #8258A3",
"6X c #8767A7",
"7X c #9769A6",
"8X c #8D73AB",
"9X c #9875A8",
"0X c #896BB8",
"qX c #956CB5",
"wX c #8C73B8",
"eX c #9A75B8",
"rX c #A777A9",
"tX c #B57BA6",
"yX c #A677B8",
"uX c #A774B0",
"iX c #B35F80",
"pX c #8D76C8",
"aX c #9578C6",
"sX c #967BD7",
"dX c #8A70C9",
"fX c #A87DD9",
"gX c #A97CC5",
"hX c #967DE2",
"jX c #9582AD",
"kX c #B988B9",
"lX c #B285B3",
"zX c #AA859A",
"xX c #C98CA3",
"cX c #9783DA",
"vX c #9E8DCE",
"bX c #AA84C7",
"nX c #B286C7",
"mX c #A787DD",
"MX c #B58BD8",
"NX c #A898DB",
"BX c #AD93CB",
"VX c #9C87E8",
"CX c #A887E3",
"ZX c #B58DE4",
"AX c #A48BF7",
"SX c #AB92FA",
"DX c #B797F9",
"FX c #B293E8",
"GX c #B7AAF4",
"HX c #C796CE",
"JX c #DDA4D3",
"KX c #C29AF2",
/* pixels */
"9 X X @ @ + ; @ > > y 0 9 9 w B E e.N.N.0.F F R ) ^ ^ K B m k k 4 4 8 w z J ~ ~ T ! 8.! V C N V m q l 0 l m m B m m m q 0 0 9 w ",
"6 X + + + > > ; g n m 0 6 X 9 q F q.e.0.G n n F V M b k 9 O O # 6 5 8 l v J B ~ c ! 6.~ V B V K m m i q q q i l m m m q q 0 6 + ",
"X 6 o r > u , u n A n y + X 6 0 G O.D 3 , , g A g 0 0 + X X X # 8 8 w w x z z c ~ ! 8.8.Y B V K l i l 0 i l m m m l m q y 0 7 7 ",
"  o > r ; , p p Z p Z u ; o 7 y H 3 < < < < , , r r y r 7 7 7 w 5 5 8 w x z z c 8.8.! ~ Q B J J m m m 0 0 0 0 b q i 0 0 0 0 9 9 ",
"  o t t t : p H 3 p p t : : i u 3 1 < % : p : & t y r r r w s s e 5 5 5 w J v ~ f.f.~ ~ B J J l m b b 0 0 0 r 0 k 0 0 0 0 0 + 0 ",
"  t i a 1 1 3 O.3 3 3 p : t p S 2 - 1 3 2 t 1 & : r s s 7 s 4 4 e e 5 5 x v v ~ f.8.c c z J l l m m b 0 0 0 0 0 0 y 0 0 0 0 + 0 ",
"t a I @.a 2 } O.] ] ] 3 1 1 t a 2 a 2 a 1 1 : 1 : t s s s     . e e 5 5 5 v v ~ ~ c x x v J ~ L m m y 0 7 + 0 0 + r 7 r 0 + 0 r ",
"A @.@.@.S } O.+.] O.] ] 1 - 1 2 ] } } - = % 1 a t t 1 t s s s 4 e 5 5 5 v x v v c j f j z ~ ~ U M B y r + o o + + + + 0 ; 0 > 0 ",
"t p O.O.O.O.;.1.+.| ] ] | O.] = +.] $ $ = 1 1 - * t a & & . & . 8 e 5 5 5 j x v v c c c z B z B > K P b > b y @ ; + o + > + > b ",
"p S I O.@.+.1.v.i.:.O.+.:.O.] < O.] ] ] ] 2 2 3 2  .a t % & & . 8 8 5 5 5 j j x c c ~ ! Q J B m y P P b o y y + + > + o o > y y ",
"P I -.=.;.t.v.b.i.1.:.i.c.c.a.i.| +.:.#.+.O.O.2 @.@.@.S s 1 t s w 8 8 8 k f f d c T ! ! ` Q C m b M V y > y n y r > + + > > y b ",
"/ -.=.h.j.c.m.M.a.i.a.Z.~.~.~.~.1.1.b.i.;.:.+.;.4.4.4.@.@.S S M w 8 8 8 O O O d C T ! 7._ _ K i n M n > o > b n r > > > > y y n ",
"_ 7.0.h.m.N.n.B.~.~.~.~.~.S.M.n.c.M.R.b.v.1.v.v.5.B.N.4.=.4.=.@.s 8 X # O + k z d T Y 7.g.k.4.` n n n y > o > > y > > > > u y n ",
"_ 7.9.z.N.C.Z.n.n.Z.Z.).S.Z.n.a.E.~.E.M.M.c.v.b.B.B.B.v.j.j.4.4.s 4 . . 7 C ( f.T W ) 9.x.N.x.g.F M F P M ; > > u > > y > b n n ",
"8.( 7.k.C.A.Z.C.i.p.n.Z.Z.Z.Z.Z.^.~.~.~.~.B.M.c.B.].{.N.j.;.=.%.s . .   b ( k.x.A.x.z.x.A.N.x.4./ I / 4.%.u > n g u > , y u n n ",
"( 6.7.y.N.S.C.p.p.Z.S.).).Z.C.n./.^.^.(.(./.S.c.].{.S.N.=.*.%.S s 4 . @ N 9.A.J.jX<XJ.J.A.x.4.P 4._ 4.g.g.D , n u > g > t u n n ",
"W W 7.q.t.m.m.p.t.C.).G.G.G.D.D.-X%X%X1X>X%X*X%X$XF.n.l.=.F s 4 4 8 0 @ g k..X>X<XBXlXH.z.x.g.9.-.&.h.z.j.I u F n n u i y u i i ",
"! W &.q.w.e.t.t.p.Z.S./..XoXoXoX*X$X$X>X>X*X*X*X$XF.n.t.&.A t s 4 4 7 @ g y.G.&X;XHXkXD.u.u.9.q.k.0.j.N.z.-.A Z Z u u y u i i i ",
"W W W W $.$.*.w.y.n.H..X X XXX X;X$X&X*X4X*X*X*X$X/.d.w.O.Z u i . 4 @ @ C u.F..X;XBXlXs.6.6.9.k.z.h.j.N.N.j.G n A n u u r r t i ",
"T Y Y R $.u.w.w.r.s.D..X+X+X@X@X7X&X*X7XuXuXuX7X%X/.d.$.h , a i 4 4 + d T y.D.oX>XkX9Xy.6.6.9.z.h.h.h.m.N.z.-.Z F A M t r r 7 s ",
"B Y Y ^ ) e.y.l.C.D.oX+X@X0X0XdX0X7X5XqXqXuXuX7X$X$XZ.$., 1 p t . 9 0 g W y.d.oX,XrX$Xu.6.q.g.k.=.=.q.e.l.x.=.F F A n y r 7   7 ",
"B B R ^ 9.k.V.D.OX+X+X0XdXdXdX#XdXqX6XqXqXgXuX*X$X$XS.w.h h 3 : . 0 n T u.V.D.d.>X9XD.6.6.9.7.) E &.$.$.4.j.g.I A A u y ; & s   ",
"Q Y Q ` g.k.A.H.<X:X6XwXsXcXhXhXdXaXqX5XgXgXgX*X$X>X-Xa.$.H H < d C T 6.y.H.F.F.rXrX.Xu.q.q.R R R $.&.E I =.0./ A n u r r &   7 ",
"K K ^ ` f.k.A.H.+X+X0XpXcXAXAXAXsXsXaXdXgXfXgX*X*XrX,Xd.w.$.D > g C W u.s.F.$XF.tXkX,XC.y.q.R _ E *.q.E D %.=./ Z u t ; 7 ; o s ",
"J K 3.` 7.k.A.OX:X8XaXNXDXAXVXVXsXhXCXCXMXMXbX7X;X;X;X=Xx.6.r.H.V.6.8.u.s.s..X7XlXlX-XH.q.W ( 7.h.q.$.E E G / -.F M >   .     & ",
"l K ` _ 9.k.H.OX8X8XpXCXDXDXAXAXsXsXmXmXZXZXbX7X&X$X=X=XH.x.A.OXjX+XoXs.s.s.d.$X4X,X].m.q.) 7.g.h.e.$.E D D E / A A >   .     o ",
"l K ` _ 9.z.A.OX9X8X8XmXDXDXDXSXhXhXCXmXZXMXgXqXXX.X X:X<XOX<XjXBXjXOX.Xd.$X*X7X4X-XF.y.e.9.g.g.z.e.*.E D D G F A n y o       ; ",
"b K ` -.0.z.A.OX9X8XeXmXDXDXDXKXDXDXFXZXMXMXeX&X XoX X:XjXvXvXvXvX8X@X:X7X4XkXHXkX-XZ.p.r.g.g.k.h.e.&.E D h Z Z Z u ; ;       o ",
"b V _ 9.0.z.A.$X,X9XbXmXmXmXfXKXZXDXKXZXKXfXgX&X&XXXXX8XNXGXGXNXbXeXqXqXuXyXHXJXtX%Xp.t.g.g.g.k.h.e.*.E D g , g n u ; ;     o r ",
"b ^ -.0.e.l.C./.;X9XkXMXaXdXfXKXfXZXKXfXHXKXgXuX&XXX@XwXNXGXGXNXpXqXqXyXgXkXHXJX>XZ.w.u.0.4.f.k.g.e.$.E D h , , g t > ; ;     7 ",
"N / -.0.e.y.C.S.$X>XyXbXeX0XdXfXfXfXfXHXKXHXfXuXXX6X@X0XNXGXVXpX0X6XqXqXnXyXHXJX(.p.w.w.0.^ _ k.0.q.$.E D g g > > > > ;   r s   ",
"R W 9.e.t.t.n.Z././.>XuXuXqXqXgXfXfXHXfXMXnXyX7XXX5X@XdXcXNXVX#XdX0XuXyXuXuXtX2X-XC.t.y.0.R Q g.-.-.E F Z u , , , > ; r r   r r ",
"f.9.9.w.w.i.a.a.(.).'.tXtX>X7XyXgXuXyXnXnXnXyXjX8X@X@X@XsXcXsX#X5XyXgXyXHXHX-XS.;.w.*./ Z n P / ` U U L i r + @ r o o ; ; ; > t ",
"7._ ) $.w.p.Y.R.'.'.iXtXtXtX-X*XyXqXyXnXkXjX9X9X8X@X@X0XaXsXdX0X5XqX7X*XtX,XS.h.*.=.-.G Z A P / U K L L i 7 7 o 7 o ; o ; ; > t ",
"7.` W $.$.i.a.R.'.'.1X1XtXkXlX>XyXuXuXyXlX9X>X:X:X:X@X@XpXvXpXdX&X7X$XoX=XG.t.q.*.*.%.G A Z F U L L L i q 7 7 X ; o ; ; ; ; , t ",
"8.Y T h $.:.i.a.2X4X2X%X1XtXkXtXuX7X7XrXrX7X;X:X:X+X+X6XwXpXpX0X7X7XoXoX$XF.w.*.%.*.I G F M V F L L L i r 7 o o 7 ; o o ; ; y y ",
"! Y V D O.;.c.R.3XxXxX1X/.-X,X>X>X*X*X7XrX>X;X;X:XXXXX@XwXpXpXwX6X7X$X$X-X/.r.=.%.%.G A F M M M i m i q 7 7 7 o o ; ; o ; > t t ",
"! V F W *.v.B.~.^.}.zX3X[.(./.(.*X$X$X*X>X;X=X;X X XXX6XwXwXwXwX7X>X.X$X<XG.w.0.%.G S A F V n y i w 0 7 7 7 7 o ; o o o ; ; > u ",
"_ ( ` / ;.j.c.M.:.i.~.}.[././.-X$X$X).$X-X$X$X=X.X X+X+X8X8XwXwX7X;X.XG.=XA.*.*.%.G A A F V n + 7 7 7 7 7 7 7 + o o o ; ; ; t u ",
"f.7._ / %.@.@.#.1.#.i.E.^.M.B.(./.).).%X=X$X X$X.X.X+X:X8X8X8X8X9X;XG.G.].m.&.*.%.A A M P M b + 7 w w 7 7 7 7 7 ; o ; o ; ; , y ",
") ^ F Z H H O.+.5.,.1.R.E.E.~.).).).(.=X/.F.F.$X X$X+X:X:X:X+X+X9X=X X].S.x.-.O.G P I F M M y + 7 w 7 7 7 + 7 7 r o ; ; r t n u ",
"&.) W G H O.| O.4.,.5.E.{.E.R.E.R.~.).(.(.S.G./.=X$XOX X X XOXOX<X/.G.G.S.l.&.G I I P P V m k + 7 7 7 7 7 7 7 r ; 7 o ; > y u M ",
"9.-.&.O.@.| | | #.,.5.W.{.W.T.R.R.R.).(.].).).$X;X=X XG.oXH..X.XOXG.S.A.N.e.%.I I I P A N k + O 0 w 7 w 7 7 7 0 o 0 ; ; r u u p ",
"w.*.*.@.O.O. . .#.5.5.E.W.Q.Y.a.R.M.E.(.(.).F.$X,X=X XF.H.D.H.H.H.C.C.N.l.*.G S I U P M b + + @ 9 7 7 0 7 7 7 7 r o ; ; r i p i ",
"t.t.j.;.;.+.| | >.,.5.I.T.Y.I.T.E.T.R.^.[./././.,X>X=XH.D.A.A.A.m.l.l.l.h.G S P U A M m y 9 + O q 0 7 i y w r i ; 7 o r y i t n ",
"c.c.c.N.v.1.,...>.>.<.I.K.2.K.Q.W.E.E.^.^.(.(.=X,X>X$XH.C.C.C.A.m.y.y.h.*.G Z A S A i y 0 + d O 0 w q 7 7 q y r o o ; ; ; u u u ",
"v.c.b.b.v.5.,.....X.2.K.K.K.I.Q.|.W.R.~.^./.%X-X-X=X/.D.C.z.m.C.l.y.j.r.&.Z , A i i i 0 + + k k 0 w q w q r i y r o ; ; r u p M ",
"w.e.j.j.5.;.#.....>.2.K.L.K.P.!.|.W.W.E.^.(.-X-X-X$XG.D.C.m.m.m.l.y.j.e.%.n t A i i 7 7 + 9 k k m i i r 0 i y y ; 0 o ; y u i u ",
"( ^ ) -.%.@.O.| [ [ { o.L.P.U.U.`.`.!.Q.iXiX1X%X).$X$Xd.p.l.j.*.e.j.z.0.E n b m 0 9 9 9 + 0 d + b m M n b r b m u u y > > ; > r ",
"~ Q Q ^ G G } } ' [ { o.L.L.U.!.`.`.`.`.iXiXiX*X).$X).p.y.l.l.w.*.j.j.9.V b k z k 9 k k k d > > u M F M n y y n n b b > > > > y ",
"z B V V F p 3 - $ [ { o.L.U.U.U.!.`.`.`.iX2X4X1X)./.).C.m.v.j.j.*.e.0./ N d + k 9 k k 9 k k d > n A P P F n n n n u u > > > g y ",
"l z N B n p 3 = $ ' [ o.L.U.U.U.!.`.iXiX2X2X2X4X(.).).n.m.v.v.;.&.*.&.F g > O j k 9 9 k 9 g b b n F / I F A Z Z n n u , , > , , ",
"l z N B A p 1 1 $ ' [ X.o.L.P.P.P.!.`.iX|.|.|.zX}.^.Z.M.v.;.*.*.%.$.G N g O @ O 9 9 j k b b b b A G I %.F A A A Z Z u , , u , u ",
"k z B B M u 1 1 $ $ ' [ { o.<.<.K.K.Y.!.`.|.|.}.}.^.b.c.v.;.O.@.%.G D b + + O O 9 k k k b b C n F G G G S Z D G Z Z n g , g , Z ",
"k l B b M u : % - = $ ' ' { X.o.<.<.L.K.W._._._.}.W.v.j.j.;.O.@.%.E N g + O X O 9 k 9 k b C N M G G G Z , h Z G Z Z n 3 g , h p ",
"j k k m b y ; % - = $ $ $ ' [ X.>.X.{ <.Q.W._.W.}.b.1.5.1.@.O.I %.E C + + d O O 9 9 k b b N N Z G G D h , , H G H Z D 3 , 3 Z g ",
"9 k k 9 0 > : : & % $ = = ' ' ' ..>.>.<.2.T.T.T.W.b.5.;.@.a p S / V g O d 0 k q B k O + N R W / G H n , , u Z G D u , , , Z D Z ",
"k 9 + 7 + o ; ; * % % = = - 2 ' [ ..+.>.2.2.5.T.T.5.#.#.@.H u G / n g O + C J Q C 9 + 0 N / %./ / F Z , , u Z F u , , , , u u n ",
"9 9 9 O o 7 ; ; & % * % - - - - 2 ] ] ..#.,.<.,.5...O.@.O.n n K R b + @ 9 J ! 3.9 O + b V / &.) / P n u > > n M > > u y b > > > ",
"9 X 7 7 + + o o   & & & & % : 1 1 1 ] | ..+.#.>.#. .} O.A n C B N k O @ 9 J ~ ` O + d N E / &.-./ P M b y b y b > b b n b > > o ",
"X 6 X X X +   o o   ; & & * & : : : 1 a  . .....#... .S F 0 k C g d O O k B m z O O b V E $.&.&.U K B m q i q y b m L m b y 7 O ",
"9 X X 9 X + 6 o o @   & ; & ; & ; ; > 3 a  . . .4. .S U V k f j + @ O k l l k O X m Y / E G G E P K L m l l q q L J L m m 0 7 6 ",
"# 6 X X X X X o @   o @         @ @ & s - 2  . . . .a U B d f j k + O X k z z l q C ^ ) / D D Z J L m m m w l l K L J q 9 9 9 6 ",
"O O # O X X . X 7 o   o @ @     . @   s - s - -  .2 t i B f f j z d O O k J J J k Q _ _ / D h g m L l m m m l l K L l 9 6 X # # "
};
